# Blender 5.2.0 LTS
# www.blender.org
mtllib lol.obg.mtl
o Cube.001
v 1.000000 -1.806413 -1.000000
v -1.000000 -1.806413 -1.000000
v 1.000000 -1.806413 1.000000
v -1.000000 -1.806413 1.000000
v 1.000000 5.309687 -1.000000
v -1.000000 5.309687 -1.000000
v 1.000000 5.309687 1.000000
v -1.000000 5.309687 1.000000
v 3.558050 5.892917 -1.000000
v 3.558049 3.892917 -1.000000
v 3.558050 5.892917 1.000000
v 3.558049 3.892917 1.000000
v -3.558050 5.892917 -1.000000
v -3.558050 3.892917 -1.000000
v -3.558050 5.892917 1.000000
v -3.558050 3.892917 1.000000
v 0.000000 7.745591 0.000000
v 0.000000 7.536434 -0.689499
v 0.000000 7.194025 -1.031909
v 0.000000 6.746645 -1.217219
v 0.000000 6.504525 -1.241066
v 0.000000 6.262405 -1.217219
v 0.000000 5.815025 -1.031909
v 0.000000 5.263459 0.000000
v 0.047235 7.721745 -0.237468
v 0.092655 7.651121 -0.465810
v 0.134515 7.536434 -0.676251
v 0.171205 7.382091 -0.860704
v 0.201315 7.194025 -1.012081
v 0.223690 6.979460 -1.124564
v 0.237468 6.746645 -1.193831
v 0.242120 6.504525 -1.217219
v 0.237468 6.262405 -1.193831
v 0.223690 6.029589 -1.124564
v 0.201315 5.815025 -1.012081
v 0.171205 5.626959 -0.860704
v 0.134515 5.472616 -0.676251
v 0.092655 5.357929 -0.465810
v 0.047235 5.287305 -0.237468
v 0.092655 7.721745 -0.223690
v 0.181750 7.651121 -0.438783
v 0.263860 7.536434 -0.637014
v 0.335830 7.382091 -0.810766
v 0.394894 7.194025 -0.953359
v 0.438783 6.979460 -1.059316
v 0.465810 6.746645 -1.124564
v 0.474935 6.504525 -1.146596
v 0.465810 6.262405 -1.124564
v 0.438783 6.029589 -1.059316
v 0.394894 5.815025 -0.953359
v 0.335830 5.626959 -0.810766
v 0.263860 5.472616 -0.637014
v 0.181750 5.357929 -0.438783
v 0.092655 5.287305 -0.223690
v 0.134515 7.721745 -0.201315
v 0.263860 7.651121 -0.394894
v 0.383065 7.536434 -0.573298
v 0.487550 7.382091 -0.729670
v 0.573298 7.194025 -0.858001
v 0.637014 6.979460 -0.953359
v 0.676251 6.746645 -1.012081
v 0.689499 6.504525 -1.031909
v 0.676251 6.262405 -1.012081
v 0.637014 6.029589 -0.953359
v 0.573298 5.815025 -0.858001
v 0.487550 5.626959 -0.729670
v 0.383065 5.472616 -0.573298
v 0.263860 5.357929 -0.394894
v 0.134515 5.287305 -0.201315
v 0.171205 7.721745 -0.171205
v 0.335830 7.651121 -0.335830
v 0.487550 7.536434 -0.487550
v 0.620533 7.382092 -0.620533
v 0.729670 7.194025 -0.729670
v 0.810766 6.979460 -0.810766
v 0.860704 6.746645 -0.860704
v 0.877566 6.504525 -0.877566
v 0.860704 6.262405 -0.860704
v 0.810765 6.029589 -0.810766
v 0.729670 5.815025 -0.729670
v 0.620533 5.626959 -0.620533
v 0.487550 5.472616 -0.487550
v 0.335830 5.357929 -0.335830
v 0.171205 5.287305 -0.171205
v 0.201315 7.721745 -0.134515
v 0.394894 7.651121 -0.263860
v 0.573298 7.536434 -0.383065
v 0.729670 7.382092 -0.487550
v 0.858001 7.194025 -0.573298
v 0.953359 6.979460 -0.637014
v 1.012081 6.746645 -0.676251
v 1.031909 6.504525 -0.689499
v 1.012081 6.262405 -0.676251
v 0.953359 6.029589 -0.637014
v 0.858001 5.815025 -0.573298
v 0.729670 5.626959 -0.487550
v 0.573298 5.472616 -0.383065
v 0.394894 5.357929 -0.263860
v 0.201315 5.287305 -0.134515
v 0.223690 7.721745 -0.092655
v 0.438783 7.651121 -0.181750
v 0.637014 7.536434 -0.263860
v 0.810766 7.382092 -0.335830
v 0.953359 7.194025 -0.394894
v 1.059316 6.979460 -0.438783
v 1.124564 6.746645 -0.465810
v 1.146595 6.504525 -0.474935
v 1.124564 6.262405 -0.465810
v 1.059316 6.029589 -0.438783
v 0.953359 5.815025 -0.394894
v 0.810766 5.626959 -0.335830
v 0.637014 5.472616 -0.263860
v 0.438783 5.357929 -0.181750
v 0.223690 5.287305 -0.092655
v 0.237468 7.721745 -0.047235
v 0.465810 7.651121 -0.092655
v 0.676251 7.536434 -0.134515
v 0.860704 7.382092 -0.171205
v 1.012081 7.194025 -0.201315
v 1.124564 6.979460 -0.223690
v 1.193831 6.746645 -0.237468
v 1.217219 6.504525 -0.242120
v 1.193831 6.262405 -0.237468
v 1.124564 6.029589 -0.223690
v 1.012081 5.815025 -0.201315
v 0.860704 5.626959 -0.171205
v 0.676251 5.472616 -0.134515
v 0.465810 5.357929 -0.092655
v 0.237468 5.287305 -0.047235
v 0.242120 7.721745 0.000000
v 0.474935 7.651121 0.000000
v 0.689499 7.536434 0.000000
v 0.877566 7.382092 -0.000000
v 1.031909 7.194025 0.000000
v 1.146596 6.979460 -0.000000
v 1.217219 6.746645 0.000000
v 1.241066 6.504525 0.000000
v 1.217219 6.262405 0.000000
v 1.146596 6.029589 -0.000000
v 1.031909 5.815025 0.000000
v 0.877566 5.626959 -0.000000
v 0.689499 5.472616 0.000000
v 0.474935 5.357929 0.000000
v 0.242120 5.287305 0.000000
v 0.237468 7.721745 0.047235
v 0.465810 7.651121 0.092655
v 0.676251 7.536434 0.134515
v 0.860704 7.382092 0.171205
v 1.012081 7.194025 0.201315
v 1.124564 6.979460 0.223690
v 1.193831 6.746645 0.237468
v 1.217219 6.504525 0.242120
v 1.193831 6.262405 0.237468
v 1.124564 6.029589 0.223690
v 1.012081 5.815025 0.201315
v 0.860704 5.626959 0.171205
v 0.676251 5.472616 0.134515
v 0.465810 5.357929 0.092655
v 0.237468 5.287305 0.047235
v 0.223690 7.721745 0.092655
v 0.438783 7.651121 0.181750
v 0.637014 7.536434 0.263860
v 0.810765 7.382092 0.335830
v 0.953359 7.194025 0.394894
v 1.059316 6.979460 0.438783
v 1.124564 6.746645 0.465810
v 1.146595 6.504525 0.474936
v 1.124564 6.262405 0.465810
v 1.059316 6.029589 0.438783
v 0.953359 5.815025 0.394894
v 0.810766 5.626959 0.335830
v 0.637014 5.472616 0.263860
v 0.438783 5.357929 0.181750
v 0.223690 5.287305 0.092655
v 0.201315 7.721745 0.134515
v 0.394894 7.651121 0.263860
v 0.573298 7.536434 0.383065
v 0.729670 7.382092 0.487550
v 0.858001 7.194025 0.573298
v 0.953359 6.979460 0.637014
v 1.012081 6.746645 0.676251
v 1.031908 6.504525 0.689499
v 1.012081 6.262405 0.676251
v 0.953359 6.029589 0.637014
v 0.858001 5.815025 0.573298
v 0.729670 5.626959 0.487550
v 0.573298 5.472616 0.383065
v 0.394894 5.357929 0.263860
v 0.201315 5.287305 0.134515
v 0.171205 7.721745 0.171205
v 0.335830 7.651121 0.335830
v 0.487549 7.536434 0.487550
v 0.620533 7.382092 0.620533
v 0.729669 7.194025 0.729670
v 0.810766 6.979460 0.810765
v 0.860704 6.746645 0.860704
v 0.877566 6.504525 0.877566
v 0.860704 6.262405 0.860704
v 0.810765 6.029589 0.810765
v 0.729669 5.815025 0.729670
v 0.620533 5.626959 0.620533
v 0.487549 5.472616 0.487550
v 0.335830 5.357929 0.335830
v 0.171205 5.287305 0.171205
v 0.134515 7.721745 0.201315
v 0.263860 7.651121 0.394894
v 0.383065 7.536434 0.573298
v 0.487550 7.382091 0.729670
v 0.573298 7.194025 0.858001
v 0.637014 6.979460 0.953359
v 0.676251 6.746645 1.012081
v 0.689499 6.504525 1.031909
v 0.676251 6.262405 1.012081
v 0.637014 6.029589 0.953359
v 0.573298 5.815025 0.858001
v 0.487550 5.626959 0.729670
v 0.383065 5.472616 0.573298
v 0.263860 5.357929 0.394894
v 0.134515 5.287305 0.201315
v 0.092655 7.721745 0.223690
v 0.181750 7.651121 0.438783
v 0.263860 7.536434 0.637014
v 0.335830 7.382091 0.810765
v 0.394894 7.194025 0.953359
v 0.438783 6.979460 1.059316
v 0.465809 6.746645 1.124564
v 0.474935 6.504525 1.146595
v 0.465809 6.262405 1.124564
v 0.438783 6.029589 1.059316
v 0.394894 5.815025 0.953359
v 0.335830 5.626959 0.810765
v 0.263860 5.472616 0.637014
v 0.181750 5.357929 0.438783
v 0.092655 5.287305 0.223690
v 0.047235 7.721745 0.237468
v 0.092655 7.651121 0.465810
v 0.134514 7.536434 0.676251
v 0.171205 7.382091 0.860704
v 0.201315 7.194025 1.012081
v 0.223690 6.979460 1.124564
v 0.237467 6.746645 1.193831
v 0.242119 6.504525 1.217219
v 0.237467 6.262405 1.193831
v 0.223690 6.029589 1.124564
v 0.201315 5.815025 1.012081
v 0.171205 5.626959 0.860704
v 0.134514 5.472616 0.676251
v 0.092655 5.357929 0.465810
v 0.047235 5.287305 0.237468
v -0.000000 7.721745 0.242120
v -0.000000 7.651121 0.474935
v -0.000000 7.536434 0.689499
v -0.000000 7.382091 0.877566
v -0.000000 7.194025 1.031909
v 0.000000 6.979460 1.146595
v -0.000000 6.746645 1.217219
v -0.000000 6.504525 1.241065
v -0.000000 6.262405 1.217219
v 0.000000 6.029589 1.146595
v -0.000000 5.815025 1.031909
v -0.000000 5.626959 0.877566
v -0.000000 5.472616 0.689499
v -0.000000 5.357929 0.474935
v -0.000000 5.287305 0.242120
v -0.047235 7.721745 0.237468
v -0.092655 7.651121 0.465810
v -0.134515 7.536434 0.676251
v -0.171205 7.382091 0.860704
v -0.201315 7.194025 1.012081
v -0.223690 6.979460 1.124564
v -0.237468 6.746645 1.193830
v -0.242120 6.504525 1.217219
v -0.237468 6.262405 1.193830
v -0.223690 6.029589 1.124564
v -0.201315 5.815025 1.012081
v -0.171205 5.626959 0.860704
v -0.134515 5.472616 0.676251
v -0.092655 5.357929 0.465810
v -0.047235 5.287305 0.237468
v -0.092655 7.721745 0.223690
v -0.181750 7.651121 0.438783
v -0.263860 7.536434 0.637014
v -0.335830 7.382091 0.810765
v -0.394894 7.194025 0.953359
v -0.438783 6.979460 1.059316
v -0.465810 6.746645 1.124564
v -0.474936 6.504525 1.146595
v -0.465810 6.262405 1.124564
v -0.438783 6.029589 1.059316
v -0.394894 5.815025 0.953359
v -0.335830 5.626959 0.810765
v -0.263860 5.472616 0.637014
v -0.181750 5.357929 0.438783
v -0.092655 5.287305 0.223690
v -0.134515 7.721745 0.201315
v -0.263860 7.651121 0.394894
v -0.383065 7.536434 0.573297
v -0.487550 7.382091 0.729670
v -0.573298 7.194025 0.858000
v -0.637014 6.979460 0.953359
v -0.676251 6.746645 1.012081
v -0.689499 6.504525 1.031908
v -0.676251 6.262405 1.012081
v -0.637014 6.029589 0.953359
v -0.573298 5.815025 0.858000
v -0.487550 5.626959 0.729670
v -0.383065 5.472616 0.573297
v -0.263860 5.357929 0.394894
v -0.134515 5.287305 0.201315
v -0.171205 7.721745 0.171205
v -0.335830 7.651121 0.335830
v -0.487550 7.536434 0.487549
v -0.620533 7.382091 0.620533
v -0.729670 7.194025 0.729669
v -0.810765 6.979460 0.810765
v -0.860704 6.746645 0.860704
v -0.877566 6.504525 0.877565
v -0.860704 6.262405 0.860704
v -0.810765 6.029589 0.810765
v -0.729669 5.815025 0.729669
v -0.620533 5.626958 0.620533
v -0.487550 5.472616 0.487549
v -0.335830 5.357929 0.335830
v -0.171205 5.287305 0.171205
v -0.201315 7.721745 0.134515
v -0.394894 7.651121 0.263860
v -0.573298 7.536434 0.383065
v -0.729670 7.382091 0.487550
v -0.858001 7.194025 0.573297
v -0.953359 6.979460 0.637014
v -1.012081 6.746645 0.676250
v -1.031908 6.504525 0.689498
v -1.012081 6.262404 0.676250
v -0.953359 6.029589 0.637014
v -0.858000 5.815025 0.573297
v -0.729670 5.626958 0.487550
v -0.573297 5.472616 0.383065
v -0.394894 5.357929 0.263860
v -0.201315 5.287305 0.134515
v -0.223690 7.721745 0.092655
v -0.438783 7.651121 0.181750
v -0.637014 7.536434 0.263860
v -0.810765 7.382091 0.335830
v -0.953359 7.194025 0.394894
v -1.059316 6.979460 0.438783
v -1.124564 6.746645 0.465809
v -1.146595 6.504525 0.474935
v -1.124564 6.262404 0.465809
v -1.059316 6.029589 0.438783
v -0.953359 5.815025 0.394894
v -0.810765 5.626958 0.335830
v -0.637014 5.472616 0.263860
v -0.438783 5.357929 0.181750
v -0.223690 5.287305 0.092655
v -0.237468 7.721745 0.047235
v -0.465810 7.651121 0.092655
v -0.676250 7.536434 0.134514
v -0.860704 7.382091 0.171205
v -1.012081 7.194025 0.201315
v -1.124564 6.979460 0.223690
v -1.193830 6.746645 0.237467
v -1.217218 6.504525 0.242119
v -1.193830 6.262404 0.237467
v -1.124564 6.029589 0.223690
v -1.012081 5.815025 0.201315
v -0.860704 5.626958 0.171205
v -0.676250 5.472616 0.134514
v -0.465810 5.357929 0.092655
v -0.237468 5.287305 0.047235
v -0.242120 7.721745 -0.000000
v -0.474935 7.651121 -0.000000
v -0.689499 7.536434 -0.000000
v -0.877566 7.382091 -0.000000
v -1.031908 7.194025 -0.000000
v -1.146595 6.979460 -0.000000
v -1.217219 6.746645 -0.000000
v -1.241065 6.504525 -0.000001
v -1.217219 6.262404 -0.000000
v -1.146595 6.029589 -0.000000
v -1.031908 5.815025 -0.000000
v -0.877566 5.626958 -0.000000
v -0.689499 5.472616 -0.000000
v -0.474935 5.357929 -0.000000
v -0.242120 5.287305 -0.000000
v -0.237468 7.721745 -0.047235
v -0.465809 7.651121 -0.092655
v -0.676250 7.536434 -0.134515
v -0.860704 7.382091 -0.171205
v -1.012080 7.194025 -0.201316
v -1.124564 6.979460 -0.223690
v -1.193830 6.746645 -0.237468
v -1.217218 6.504525 -0.242120
v -1.193830 6.262404 -0.237468
v -1.124564 6.029589 -0.223690
v -1.012080 5.815025 -0.201316
v -0.860704 5.626958 -0.171205
v -0.676250 5.472616 -0.134515
v -0.465809 5.357929 -0.092655
v -0.237468 5.287305 -0.047235
v -0.223690 7.721745 -0.092655
v -0.438783 7.651121 -0.181750
v -0.637014 7.536434 -0.263860
v -0.810765 7.382091 -0.335830
v -0.953359 7.194025 -0.394894
v -1.059316 6.979460 -0.438783
v -1.124563 6.746645 -0.465810
v -1.146594 6.504525 -0.474936
v -1.124563 6.262404 -0.465810
v -1.059316 6.029589 -0.438783
v -0.953359 5.815025 -0.394894
v -0.810765 5.626958 -0.335830
v -0.637014 5.472616 -0.263860
v -0.438783 5.357929 -0.181750
v -0.223690 5.287305 -0.092655
v -0.201315 7.721745 -0.134515
v -0.394894 7.651121 -0.263860
v -0.573297 7.536434 -0.383065
v -0.729670 7.382091 -0.487550
v -0.858000 7.194025 -0.573298
v -0.953359 6.979460 -0.637014
v -1.012080 6.746645 -0.676251
v -1.031907 6.504525 -0.689499
v -1.012080 6.262404 -0.676251
v -0.953359 6.029589 -0.637014
v -0.858000 5.815025 -0.573298
v -0.729669 5.626958 -0.487550
v -0.573297 5.472616 -0.383065
v -0.394894 5.357929 -0.263860
v -0.201315 5.287305 -0.134515
v -0.171205 7.721745 -0.171205
v -0.335830 7.651121 -0.335830
v -0.487549 7.536434 -0.487549
v -0.620533 7.382091 -0.620533
v -0.729669 7.194025 -0.729669
v -0.810765 6.979460 -0.810765
v -0.860703 6.746645 -0.860704
v -0.877565 6.504525 -0.877566
v -0.860703 6.262405 -0.860704
v -0.810765 6.029589 -0.810765
v -0.729669 5.815025 -0.729669
v -0.620533 5.626958 -0.620533
v -0.487549 5.472616 -0.487549
v -0.335830 5.357929 -0.335830
v -0.171205 5.287305 -0.171205
v -0.134515 7.721745 -0.201315
v -0.263860 7.651121 -0.394894
v -0.383065 7.536434 -0.573297
v -0.487550 7.382091 -0.729670
v -0.573297 7.194025 -0.858000
v -0.637014 6.979460 -0.953359
v -0.676250 6.746645 -1.012081
v -0.689498 6.504525 -1.031908
v -0.676250 6.262405 -1.012081
v -0.637014 6.029589 -0.953359
v -0.573297 5.815025 -0.858000
v -0.487550 5.626959 -0.729670
v -0.383065 5.472616 -0.573297
v -0.263860 5.357929 -0.394894
v -0.134515 5.287305 -0.201315
v -0.092655 7.721745 -0.223689
v -0.181750 7.651121 -0.438783
v -0.263860 7.536434 -0.637014
v -0.335830 7.382091 -0.810765
v -0.394894 7.194025 -0.953359
v -0.438783 6.979460 -1.059316
v -0.465809 6.746645 -1.124564
v -0.474934 6.504525 -1.146595
v -0.465809 6.262405 -1.124564
v -0.438783 6.029589 -1.059316
v -0.394894 5.815025 -0.953359
v -0.335830 5.626959 -0.810765
v -0.263859 5.472616 -0.637014
v -0.181750 5.357929 -0.438783
v -0.092655 5.287305 -0.223689
v -0.047235 7.721745 -0.237467
v -0.092655 7.651121 -0.465809
v -0.134514 7.536434 -0.676250
v -0.171205 7.382091 -0.860704
v -0.201315 7.194025 -1.012080
v -0.223690 6.979460 -1.124564
v -0.237467 6.746645 -1.193830
v -0.242119 6.504525 -1.217218
v -0.237467 6.262405 -1.193830
v -0.223690 6.029589 -1.124564
v -0.201315 5.815025 -1.012080
v -0.171205 5.626959 -0.860704
v -0.134514 5.472616 -0.676250
v -0.092655 5.357929 -0.465809
v -0.047235 5.287305 -0.237467
v 0.000000 7.721745 -0.242120
v 0.000000 7.651121 -0.474935
v 0.000000 7.382091 -0.877566
v 0.000000 6.979460 -1.146595
v 0.000000 6.029589 -1.146595
v 0.000000 5.626959 -0.877566
v 0.000000 5.472616 -0.689499
v 0.000000 5.357929 -0.474935
v 0.000000 5.287305 -0.242120
vn 1.0000 -0.0000 -0.0000
vn -0.0000 -0.0000 1.0000
vn -0.0000 1.0000 -0.0000
vn -1.0000 -0.0000 -0.0000
vn -0.0000 -1.0000 -0.0000
vn -0.0000 -0.0000 -1.0000
vn 0.0976 -0.0975 -0.9904
vn 0.0286 0.9565 -0.2902
vn 0.0938 -0.2890 -0.9527
vn 0.0464 0.8810 -0.4709
vn 0.0865 -0.4696 -0.8786
vn 0.0624 0.7715 -0.6332
vn 0.0759 -0.6326 -0.7708
vn 0.0759 0.6326 -0.7708
vn 0.0624 -0.7715 -0.6332
vn 0.0865 0.4696 -0.8786
vn 0.0464 -0.8810 -0.4709
vn 0.0938 0.2890 -0.9527
vn 0.0286 -0.9565 -0.2902
vn 0.0976 0.0975 -0.9904
vn 0.0097 0.9951 -0.0980
vn 0.0097 -0.9951 -0.0980
vn 0.0846 -0.9565 -0.2790
vn 0.2889 0.0975 -0.9524
vn 0.0286 0.9951 -0.0942
vn 0.0286 -0.9951 -0.0942
vn 0.2889 -0.0976 -0.9524
vn 0.0846 0.9565 -0.2790
vn 0.2779 -0.2890 -0.9161
vn 0.1374 0.8810 -0.4528
vn 0.2563 -0.4696 -0.8448
vn 0.1847 0.7715 -0.6088
vn 0.2248 -0.6326 -0.7412
vn 0.2248 0.6326 -0.7412
vn 0.1847 -0.7715 -0.6088
vn 0.2563 0.4696 -0.8448
vn 0.1374 -0.8810 -0.4528
vn 0.2779 0.2890 -0.9161
vn 0.3651 -0.6326 -0.6831
vn 0.3651 0.6326 -0.6831
vn 0.2999 -0.7715 -0.5611
vn 0.4162 0.4696 -0.7786
vn 0.2231 -0.8810 -0.4173
vn 0.4513 0.2890 -0.8443
vn 0.1374 -0.9565 -0.2571
vn 0.4691 0.0975 -0.8777
vn 0.0464 0.9951 -0.0869
vn 0.0464 -0.9951 -0.0869
vn 0.4691 -0.0975 -0.8777
vn 0.1374 0.9565 -0.2571
vn 0.4513 -0.2890 -0.8443
vn 0.2231 0.8810 -0.4173
vn 0.4162 -0.4696 -0.7786
vn 0.2999 0.7715 -0.5611
vn 0.0625 0.9951 -0.0761
vn 0.0625 -0.9951 -0.0761
vn 0.6314 -0.0975 -0.7693
vn 0.1850 0.9565 -0.2254
vn 0.6073 -0.2890 -0.7400
vn 0.3002 0.8810 -0.3658
vn 0.5601 -0.4696 -0.6825
vn 0.4036 0.7715 -0.4918
vn 0.4913 -0.6326 -0.5987
vn 0.4913 0.6326 -0.5987
vn 0.4036 -0.7715 -0.4918
vn 0.5601 0.4696 -0.6825
vn 0.3002 -0.8810 -0.3658
vn 0.6073 0.2890 -0.7400
vn 0.1850 -0.9565 -0.2254
vn 0.6314 0.0975 -0.7693
vn 0.5987 0.6326 -0.4913
vn 0.4918 -0.7715 -0.4036
vn 0.6825 0.4696 -0.5601
vn 0.3658 -0.8810 -0.3002
vn 0.7400 0.2890 -0.6073
vn 0.2254 -0.9565 -0.1850
vn 0.7693 0.0975 -0.6314
vn 0.0761 0.9951 -0.0625
vn 0.0761 -0.9951 -0.0625
vn 0.7693 -0.0975 -0.6314
vn 0.2254 0.9565 -0.1850
vn 0.7400 -0.2890 -0.6073
vn 0.3658 0.8810 -0.3002
vn 0.6825 -0.4696 -0.5601
vn 0.4918 0.7715 -0.4036
vn 0.5987 -0.6326 -0.4913
vn 0.8777 -0.0975 -0.4691
vn 0.2571 0.9565 -0.1374
vn 0.8443 -0.2890 -0.4513
vn 0.4173 0.8810 -0.2231
vn 0.7786 -0.4696 -0.4162
vn 0.5611 0.7715 -0.2999
vn 0.6831 -0.6326 -0.3651
vn 0.6831 0.6326 -0.3651
vn 0.5611 -0.7715 -0.2999
vn 0.7786 0.4696 -0.4162
vn 0.4173 -0.8810 -0.2230
vn 0.8443 0.2890 -0.4513
vn 0.2571 -0.9565 -0.1374
vn 0.8777 0.0975 -0.4691
vn 0.0869 0.9951 -0.0464
vn 0.0869 -0.9951 -0.0464
vn 0.6088 -0.7715 -0.1847
vn 0.8448 0.4696 -0.2563
vn 0.4528 -0.8810 -0.1374
vn 0.9161 0.2890 -0.2779
vn 0.2790 -0.9565 -0.0846
vn 0.9524 0.0975 -0.2889
vn 0.0942 0.9951 -0.0286
vn 0.0942 -0.9951 -0.0286
vn 0.9524 -0.0975 -0.2889
vn 0.2790 0.9565 -0.0846
vn 0.9161 -0.2890 -0.2779
vn 0.4528 0.8810 -0.1374
vn 0.8448 -0.4696 -0.2563
vn 0.6088 0.7715 -0.1847
vn 0.7412 -0.6326 -0.2248
vn 0.7412 0.6326 -0.2248
vn 0.2902 0.9565 -0.0286
vn 0.9527 -0.2890 -0.0938
vn 0.4709 0.8810 -0.0464
vn 0.8786 -0.4696 -0.0865
vn 0.6332 0.7715 -0.0624
vn 0.7708 -0.6326 -0.0759
vn 0.7708 0.6326 -0.0759
vn 0.6332 -0.7715 -0.0624
vn 0.8786 0.4696 -0.0865
vn 0.4709 -0.8810 -0.0464
vn 0.9527 0.2890 -0.0938
vn 0.2902 -0.9565 -0.0286
vn 0.9904 0.0975 -0.0975
vn 0.0980 0.9951 -0.0097
vn 0.0980 -0.9951 -0.0097
vn 0.9904 -0.0975 -0.0975
vn 0.8786 0.4696 0.0865
vn 0.4709 -0.8810 0.0464
vn 0.9527 0.2890 0.0938
vn 0.2902 -0.9565 0.0286
vn 0.9904 0.0975 0.0976
vn 0.0980 0.9951 0.0097
vn 0.0980 -0.9951 0.0097
vn 0.9904 -0.0975 0.0976
vn 0.2902 0.9565 0.0286
vn 0.9527 -0.2890 0.0938
vn 0.4709 0.8810 0.0464
vn 0.8786 -0.4696 0.0865
vn 0.6332 0.7715 0.0624
vn 0.7708 -0.6326 0.0759
vn 0.7708 0.6326 0.0759
vn 0.6332 -0.7715 0.0624
vn 0.9161 -0.2890 0.2779
vn 0.4528 0.8810 0.1374
vn 0.8448 -0.4696 0.2563
vn 0.6088 0.7715 0.1847
vn 0.7412 -0.6326 0.2248
vn 0.7412 0.6326 0.2248
vn 0.6088 -0.7715 0.1847
vn 0.8448 0.4696 0.2563
vn 0.4528 -0.8810 0.1374
vn 0.9161 0.2890 0.2779
vn 0.2790 -0.9565 0.0846
vn 0.9524 0.0975 0.2889
vn 0.0942 0.9951 0.0286
vn 0.0942 -0.9951 0.0286
vn 0.9524 -0.0975 0.2889
vn 0.2790 0.9565 0.0846
vn 0.4173 -0.8810 0.2231
vn 0.8443 0.2890 0.4513
vn 0.2571 -0.9565 0.1374
vn 0.8777 0.0975 0.4691
vn 0.0869 0.9951 0.0464
vn 0.0869 -0.9951 0.0464
vn 0.8777 -0.0975 0.4691
vn 0.2571 0.9566 0.1374
vn 0.8443 -0.2890 0.4513
vn 0.4173 0.8810 0.2231
vn 0.7786 -0.4696 0.4162
vn 0.5611 0.7715 0.2999
vn 0.6831 -0.6326 0.3651
vn 0.6831 0.6326 0.3651
vn 0.5611 -0.7715 0.2999
vn 0.7786 0.4696 0.4162
vn 0.6825 -0.4696 0.5601
vn 0.4918 0.7715 0.4036
vn 0.5987 -0.6326 0.4913
vn 0.5987 0.6326 0.4913
vn 0.4918 -0.7715 0.4036
vn 0.6825 0.4696 0.5601
vn 0.3658 -0.8810 0.3002
vn 0.7400 0.2890 0.6073
vn 0.2254 -0.9565 0.1850
vn 0.7693 0.0975 0.6314
vn 0.0761 0.9951 0.0625
vn 0.0761 -0.9951 0.0625
vn 0.7693 -0.0975 0.6314
vn 0.2254 0.9566 0.1850
vn 0.7400 -0.2890 0.6073
vn 0.3658 0.8810 0.3002
vn 0.1850 -0.9565 0.2254
vn 0.6314 0.0975 0.7693
vn 0.0625 0.9951 0.0761
vn 0.0625 -0.9951 0.0761
vn 0.6314 -0.0975 0.7693
vn 0.1850 0.9565 0.2254
vn 0.6073 -0.2890 0.7400
vn 0.3002 0.8810 0.3658
vn 0.5601 -0.4696 0.6825
vn 0.4036 0.7715 0.4918
vn 0.4913 -0.6326 0.5987
vn 0.4913 0.6326 0.5987
vn 0.4036 -0.7715 0.4918
vn 0.5601 0.4696 0.6825
vn 0.3002 -0.8810 0.3658
vn 0.6073 0.2890 0.7400
vn 0.2999 0.7715 0.5611
vn 0.3651 -0.6326 0.6831
vn 0.3651 0.6326 0.6831
vn 0.2999 -0.7715 0.5611
vn 0.4162 0.4696 0.7786
vn 0.2230 -0.8810 0.4173
vn 0.4513 0.2890 0.8443
vn 0.1374 -0.9566 0.2571
vn 0.4691 0.0975 0.8777
vn 0.0464 0.9951 0.0869
vn 0.0464 -0.9951 0.0869
vn 0.4691 -0.0975 0.8777
vn 0.1374 0.9565 0.2571
vn 0.4513 -0.2890 0.8443
vn 0.2231 0.8810 0.4173
vn 0.4162 -0.4696 0.7786
vn 0.2889 0.0975 0.9524
vn 0.0286 0.9951 0.0943
vn 0.0286 -0.9951 0.0942
vn 0.2889 -0.0975 0.9524
vn 0.0846 0.9565 0.2790
vn 0.2779 -0.2890 0.9161
vn 0.1374 0.8810 0.4528
vn 0.2563 -0.4696 0.8448
vn 0.1847 0.7715 0.6088
vn 0.2248 -0.6326 0.7412
vn 0.2248 0.6326 0.7412
vn 0.1847 -0.7715 0.6088
vn 0.2563 0.4696 0.8448
vn 0.1374 -0.8810 0.4528
vn 0.2779 0.2890 0.9161
vn 0.0846 -0.9565 0.2790
vn 0.0759 -0.6326 0.7708
vn 0.0759 0.6326 0.7708
vn 0.0624 -0.7715 0.6332
vn 0.0865 0.4696 0.8786
vn 0.0464 -0.8810 0.4709
vn 0.0938 0.2890 0.9527
vn 0.0286 -0.9565 0.2902
vn 0.0975 0.0975 0.9904
vn 0.0097 0.9951 0.0980
vn 0.0097 -0.9951 0.0980
vn 0.0975 -0.0975 0.9904
vn 0.0286 0.9565 0.2902
vn 0.0938 -0.2890 0.9527
vn 0.0464 0.8810 0.4709
vn 0.0865 -0.4696 0.8786
vn 0.0624 0.7715 0.6332
vn -0.0097 0.9951 0.0980
vn -0.0097 -0.9951 0.0980
vn -0.0976 -0.0975 0.9904
vn -0.0286 0.9566 0.2902
vn -0.0938 -0.2890 0.9527
vn -0.0464 0.8810 0.4709
vn -0.0865 -0.4696 0.8786
vn -0.0624 0.7715 0.6332
vn -0.0759 -0.6326 0.7708
vn -0.0759 0.6326 0.7708
vn -0.0624 -0.7715 0.6332
vn -0.0865 0.4696 0.8786
vn -0.0464 -0.8810 0.4709
vn -0.0938 0.2890 0.9527
vn -0.0286 -0.9565 0.2902
vn -0.0976 0.0975 0.9904
vn -0.2248 0.6326 0.7412
vn -0.1847 -0.7715 0.6088
vn -0.2563 0.4696 0.8448
vn -0.1374 -0.8810 0.4528
vn -0.2779 0.2890 0.9161
vn -0.0846 -0.9565 0.2790
vn -0.2889 0.0975 0.9524
vn -0.0286 0.9951 0.0943
vn -0.0286 -0.9951 0.0942
vn -0.2889 -0.0975 0.9524
vn -0.0846 0.9566 0.2790
vn -0.2779 -0.2890 0.9161
vn -0.1374 0.8810 0.4528
vn -0.2563 -0.4696 0.8448
vn -0.1847 0.7715 0.6088
vn -0.2248 -0.6326 0.7412
vn -0.4691 -0.0975 0.8777
vn -0.1374 0.9566 0.2571
vn -0.4513 -0.2890 0.8443
vn -0.2231 0.8810 0.4173
vn -0.4162 -0.4696 0.7786
vn -0.2999 0.7715 0.5611
vn -0.3651 -0.6326 0.6831
vn -0.3651 0.6326 0.6831
vn -0.2999 -0.7715 0.5611
vn -0.4162 0.4696 0.7786
vn -0.2231 -0.8810 0.4173
vn -0.4513 0.2890 0.8443
vn -0.1374 -0.9566 0.2571
vn -0.4691 0.0975 0.8777
vn -0.0464 0.9951 0.0869
vn -0.0464 -0.9951 0.0869
vn -0.4036 -0.7715 0.4918
vn -0.5601 0.4696 0.6825
vn -0.3002 -0.8810 0.3658
vn -0.6073 0.2890 0.7400
vn -0.1850 -0.9565 0.2254
vn -0.6314 0.0975 0.7693
vn -0.0625 0.9951 0.0761
vn -0.0625 -0.9951 0.0761
vn -0.6314 -0.0975 0.7693
vn -0.1850 0.9565 0.2254
vn -0.6073 -0.2890 0.7400
vn -0.3002 0.8810 0.3658
vn -0.5601 -0.4696 0.6825
vn -0.4036 0.7715 0.4918
vn -0.4913 -0.6326 0.5987
vn -0.4913 0.6326 0.5987
vn -0.7400 -0.2890 0.6073
vn -0.3658 0.8810 0.3002
vn -0.6825 -0.4696 0.5601
vn -0.4918 0.7715 0.4036
vn -0.5987 -0.6326 0.4913
vn -0.5987 0.6326 0.4913
vn -0.4918 -0.7715 0.4036
vn -0.6825 0.4696 0.5601
vn -0.3658 -0.8810 0.3002
vn -0.7400 0.2890 0.6073
vn -0.2254 -0.9565 0.1850
vn -0.7693 0.0975 0.6314
vn -0.0761 0.9951 0.0625
vn -0.0761 -0.9951 0.0625
vn -0.7693 -0.0975 0.6314
vn -0.2254 0.9565 0.1850
vn -0.4173 -0.8810 0.2231
vn -0.8443 0.2890 0.4513
vn -0.2571 -0.9565 0.1374
vn -0.8777 0.0975 0.4691
vn -0.0869 0.9951 0.0464
vn -0.0869 -0.9951 0.0464
vn -0.8777 -0.0975 0.4691
vn -0.2571 0.9566 0.1374
vn -0.8443 -0.2890 0.4513
vn -0.4173 0.8810 0.2230
vn -0.7786 -0.4696 0.4162
vn -0.5611 0.7715 0.2999
vn -0.6831 -0.6326 0.3651
vn -0.6831 0.6326 0.3651
vn -0.5611 -0.7715 0.2999
vn -0.7786 0.4696 0.4162
vn -0.4528 0.8810 0.1374
vn -0.8448 -0.4696 0.2563
vn -0.6088 0.7715 0.1847
vn -0.7412 -0.6326 0.2248
vn -0.7412 0.6326 0.2248
vn -0.6088 -0.7715 0.1847
vn -0.8448 0.4696 0.2563
vn -0.4528 -0.8810 0.1374
vn -0.9161 0.2890 0.2779
vn -0.2790 -0.9565 0.0846
vn -0.9524 0.0975 0.2889
vn -0.0942 0.9951 0.0286
vn -0.0942 -0.9951 0.0286
vn -0.9524 -0.0975 0.2889
vn -0.2790 0.9565 0.0846
vn -0.9161 -0.2890 0.2779
vn -0.9527 0.2890 0.0938
vn -0.2902 -0.9565 0.0286
vn -0.9904 0.0975 0.0975
vn -0.0980 0.9951 0.0097
vn -0.0980 -0.9951 0.0097
vn -0.9904 -0.0975 0.0975
vn -0.2902 0.9565 0.0286
vn -0.9527 -0.2890 0.0938
vn -0.4709 0.8810 0.0464
vn -0.8786 -0.4696 0.0865
vn -0.6332 0.7715 0.0624
vn -0.7708 -0.6326 0.0759
vn -0.7708 0.6326 0.0759
vn -0.6332 -0.7715 0.0624
vn -0.8786 0.4696 0.0865
vn -0.4709 -0.8810 0.0464
vn -0.8786 -0.4696 -0.0865
vn -0.6332 0.7715 -0.0624
vn -0.7708 -0.6326 -0.0759
vn -0.7708 0.6326 -0.0759
vn -0.6332 -0.7715 -0.0624
vn -0.8786 0.4696 -0.0865
vn -0.4709 -0.8810 -0.0464
vn -0.9527 0.2890 -0.0938
vn -0.2902 -0.9565 -0.0286
vn -0.9904 0.0975 -0.0976
vn -0.0980 0.9951 -0.0097
vn -0.0980 -0.9951 -0.0097
vn -0.9904 -0.0975 -0.0976
vn -0.2902 0.9565 -0.0286
vn -0.9527 -0.2890 -0.0938
vn -0.4709 0.8810 -0.0464
vn -0.2790 -0.9565 -0.0846
vn -0.9524 0.0975 -0.2889
vn -0.0942 0.9951 -0.0286
vn -0.0942 -0.9951 -0.0286
vn -0.9524 -0.0975 -0.2889
vn -0.2790 0.9565 -0.0846
vn -0.9161 -0.2890 -0.2779
vn -0.4528 0.8810 -0.1374
vn -0.8448 -0.4696 -0.2563
vn -0.6088 0.7715 -0.1847
vn -0.7412 -0.6326 -0.2248
vn -0.7412 0.6326 -0.2248
vn -0.6088 -0.7715 -0.1847
vn -0.8448 0.4696 -0.2563
vn -0.4528 -0.8810 -0.1374
vn -0.9161 0.2890 -0.2779
vn -0.5611 0.7715 -0.2999
vn -0.6831 -0.6326 -0.3651
vn -0.6831 0.6326 -0.3651
vn -0.5611 -0.7715 -0.2999
vn -0.7786 0.4696 -0.4162
vn -0.4173 -0.8810 -0.2231
vn -0.8443 0.2890 -0.4513
vn -0.2571 -0.9565 -0.1374
vn -0.8777 0.0975 -0.4691
vn -0.0869 0.9951 -0.0464
vn -0.0869 -0.9951 -0.0464
vn -0.8777 -0.0975 -0.4691
vn -0.2571 0.9565 -0.1374
vn -0.8443 -0.2890 -0.4513
vn -0.4173 0.8810 -0.2231
vn -0.7786 -0.4696 -0.4162
vn -0.7693 0.0975 -0.6314
vn -0.0761 0.9951 -0.0625
vn -0.0761 -0.9951 -0.0625
vn -0.7693 -0.0975 -0.6314
vn -0.2254 0.9566 -0.1850
vn -0.7400 -0.2890 -0.6073
vn -0.3658 0.8810 -0.3002
vn -0.6825 -0.4696 -0.5601
vn -0.4918 0.7715 -0.4036
vn -0.5987 -0.6326 -0.4913
vn -0.5987 0.6326 -0.4913
vn -0.4918 -0.7715 -0.4036
vn -0.6825 0.4696 -0.5601
vn -0.3658 -0.8810 -0.3002
vn -0.7400 0.2890 -0.6073
vn -0.2254 -0.9565 -0.1850
vn -0.4913 -0.6326 -0.5987
vn -0.4913 0.6326 -0.5987
vn -0.4036 -0.7715 -0.4918
vn -0.5601 0.4696 -0.6825
vn -0.3002 -0.8810 -0.3658
vn -0.6073 0.2890 -0.7400
vn -0.1850 -0.9565 -0.2254
vn -0.6314 0.0975 -0.7693
vn -0.0625 0.9951 -0.0761
vn -0.0625 -0.9951 -0.0761
vn -0.6314 -0.0975 -0.7693
vn -0.1850 0.9565 -0.2254
vn -0.6073 -0.2890 -0.7400
vn -0.3002 0.8810 -0.3658
vn -0.5601 -0.4696 -0.6825
vn -0.4036 0.7715 -0.4918
vn -0.0464 -0.9951 -0.0869
vn -0.4691 -0.0975 -0.8777
vn -0.1374 0.9565 -0.2571
vn -0.4513 -0.2890 -0.8443
vn -0.2231 0.8810 -0.4173
vn -0.4162 -0.4696 -0.7786
vn -0.2999 0.7715 -0.5611
vn -0.3651 -0.6326 -0.6831
vn -0.3651 0.6326 -0.6831
vn -0.2999 -0.7715 -0.5611
vn -0.4162 0.4696 -0.7786
vn -0.2231 -0.8810 -0.4173
vn -0.4513 0.2890 -0.8443
vn -0.1374 -0.9566 -0.2571
vn -0.4691 0.0975 -0.8777
vn -0.0464 0.9951 -0.0868
vn -0.1847 -0.7715 -0.6088
vn -0.2563 0.4696 -0.8448
vn -0.1374 -0.8810 -0.4528
vn -0.2779 0.2890 -0.9161
vn -0.0846 -0.9565 -0.2790
vn -0.2889 0.0975 -0.9524
vn -0.0286 0.9951 -0.0942
vn -0.0286 -0.9951 -0.0942
vn -0.2889 -0.0975 -0.9524
vn -0.0846 0.9566 -0.2790
vn -0.2779 -0.2890 -0.9161
vn -0.1374 0.8810 -0.4528
vn -0.2563 -0.4696 -0.8448
vn -0.1847 0.7715 -0.6088
vn -0.2248 -0.6326 -0.7412
vn -0.2248 0.6326 -0.7412
vn -0.0286 0.9565 -0.2902
vn -0.0938 -0.2890 -0.9527
vn -0.0464 0.8810 -0.4709
vn -0.0865 -0.4696 -0.8786
vn -0.0624 0.7715 -0.6332
vn -0.0759 -0.6326 -0.7708
vn -0.0759 0.6326 -0.7708
vn -0.0624 -0.7715 -0.6332
vn -0.0865 0.4696 -0.8786
vn -0.0464 -0.8810 -0.4709
vn -0.0938 0.2890 -0.9527
vn -0.0286 -0.9565 -0.2902
vn -0.0976 0.0975 -0.9904
vn -0.0097 0.9951 -0.0980
vn -0.0097 -0.9951 -0.0980
vn -0.0976 -0.0975 -0.9904
vt 0.625000 0.500000
vt 0.875000 0.500000
vt 0.875000 0.750000
vt 0.625000 0.750000
vt 0.375000 0.750000
vt 0.625000 1.000000
vt 0.375000 1.000000
vt 0.375000 0.000000
vt 0.625000 0.000000
vt 0.625000 0.250000
vt 0.375000 0.250000
vt 0.125000 0.500000
vt 0.375000 0.500000
vt 0.125000 0.750000
vt 0.750000 0.437500
vt 0.750000 0.500000
vt 0.718750 0.500000
vt 0.718750 0.437500
vt 0.750000 0.875000
vt 0.750000 0.937500
vt 0.718750 0.937500
vt 0.718750 0.875000
vt 0.750000 0.375000
vt 0.718750 0.375000
vt 0.750000 0.812500
vt 0.718750 0.812500
vt 0.750000 0.312500
vt 0.718750 0.312500
vt 0.750000 0.750000
vt 0.718750 0.750000
vt 0.750000 0.250000
vt 0.718750 0.250000
vt 0.750000 0.687500
vt 0.718750 0.687500
vt 0.750000 0.187500
vt 0.718750 0.187500
vt 0.750000 0.625000
vt 0.718750 0.625000
vt 0.750000 0.125000
vt 0.718750 0.125000
vt 0.750000 0.562500
vt 0.718750 0.562500
vt 0.750000 0.062500
vt 0.718750 0.062500
vt 0.734375 1.000000
vt 0.734375 0.000000
vt 0.687500 0.125000
vt 0.687500 0.062500
vt 0.687500 0.562500
vt 0.687500 0.500000
vt 0.703125 1.000000
vt 0.687500 0.937500
vt 0.703125 0.000000
vt 0.687500 0.437500
vt 0.687500 0.875000
vt 0.687500 0.375000
vt 0.687500 0.812500
vt 0.687500 0.312500
vt 0.687500 0.750000
vt 0.687500 0.250000
vt 0.687500 0.687500
vt 0.687500 0.187500
vt 0.687500 0.625000
vt 0.656250 0.312500
vt 0.656250 0.250000
vt 0.656250 0.750000
vt 0.656250 0.687500
vt 0.656250 0.187500
vt 0.656250 0.625000
vt 0.656250 0.125000
vt 0.656250 0.562500
vt 0.656250 0.062500
vt 0.656250 0.500000
vt 0.671875 1.000000
vt 0.656250 0.937500
vt 0.671875 0.000000
vt 0.656250 0.437500
vt 0.656250 0.875000
vt 0.656250 0.375000
vt 0.656250 0.812500
vt 0.640625 1.000000
vt 0.625000 0.937500
vt 0.640625 0.000000
vt 0.625000 0.062500
vt 0.625000 0.437500
vt 0.625000 0.875000
vt 0.625000 0.375000
vt 0.625000 0.812500
vt 0.625000 0.312500
vt 0.625000 0.687500
vt 0.625000 0.187500
vt 0.625000 0.625000
vt 0.625000 0.125000
vt 0.625000 0.562500
vt 0.593750 0.750000
vt 0.593750 0.687500
vt 0.593750 0.250000
vt 0.593750 0.187500
vt 0.593750 0.625000
vt 0.593750 0.125000
vt 0.593750 0.562500
vt 0.593750 0.062500
vt 0.593750 0.500000
vt 0.609375 1.000000
vt 0.593750 0.937500
vt 0.609375 0.000000
vt 0.593750 0.437500
vt 0.593750 0.875000
vt 0.593750 0.375000
vt 0.593750 0.812500
vt 0.593750 0.312500
vt 0.562500 0.500000
vt 0.562500 0.437500
vt 0.562500 0.937500
vt 0.562500 0.875000
vt 0.562500 0.375000
vt 0.562500 0.812500
vt 0.562500 0.312500
vt 0.562500 0.750000
vt 0.562500 0.250000
vt 0.562500 0.687500
vt 0.562500 0.187500
vt 0.562500 0.625000
vt 0.562500 0.125000
vt 0.562500 0.562500
vt 0.562500 0.062500
vt 0.578125 1.000000
vt 0.578125 0.000000
vt 0.531250 0.250000
vt 0.531250 0.187500
vt 0.531250 0.687500
vt 0.531250 0.625000
vt 0.531250 0.125000
vt 0.531250 0.562500
vt 0.531250 0.062500
vt 0.531250 0.500000
vt 0.546875 1.000000
vt 0.531250 0.937500
vt 0.546875 0.000000
vt 0.531250 0.437500
vt 0.531250 0.875000
vt 0.531250 0.375000
vt 0.531250 0.812500
vt 0.531250 0.312500
vt 0.531250 0.750000
vt 0.500000 0.937500
vt 0.500000 0.875000
vt 0.500000 0.437500
vt 0.500000 0.375000
vt 0.500000 0.812500
vt 0.500000 0.312500
vt 0.500000 0.750000
vt 0.500000 0.250000
vt 0.500000 0.687500
vt 0.500000 0.187500
vt 0.500000 0.625000
vt 0.500000 0.125000
vt 0.500000 0.562500
vt 0.500000 0.062500
vt 0.500000 0.500000
vt 0.515625 1.000000
vt 0.515625 0.000000
vt 0.468750 0.687500
vt 0.468750 0.625000
vt 0.468750 0.187500
vt 0.468750 0.125000
vt 0.468750 0.562500
vt 0.468750 0.062500
vt 0.468750 0.500000
vt 0.484375 1.000000
vt 0.468750 0.937500
vt 0.484375 0.000000
vt 0.468750 0.437500
vt 0.468750 0.875000
vt 0.468750 0.375000
vt 0.468750 0.812500
vt 0.468750 0.312500
vt 0.468750 0.750000
vt 0.468750 0.250000
vt 0.437500 0.437500
vt 0.437500 0.375000
vt 0.437500 0.875000
vt 0.437500 0.812500
vt 0.437500 0.312500
vt 0.437500 0.750000
vt 0.437500 0.250000
vt 0.437500 0.687500
vt 0.437500 0.187500
vt 0.437500 0.625000
vt 0.437500 0.125000
vt 0.437500 0.562500
vt 0.437500 0.062500
vt 0.437500 0.500000
vt 0.453125 1.000000
vt 0.437500 0.937500
vt 0.453125 0.000000
vt 0.406250 0.187500
vt 0.406250 0.125000
vt 0.406250 0.625000
vt 0.406250 0.562500
vt 0.406250 0.062500
vt 0.406250 0.500000
vt 0.421875 1.000000
vt 0.406250 0.937500
vt 0.421875 0.000000
vt 0.406250 0.437500
vt 0.406250 0.875000
vt 0.406250 0.375000
vt 0.406250 0.812500
vt 0.406250 0.312500
vt 0.406250 0.750000
vt 0.406250 0.250000
vt 0.406250 0.687500
vt 0.375000 0.375000
vt 0.375000 0.312500
vt 0.375000 0.812500
vt 0.375000 0.687500
vt 0.375000 0.187500
vt 0.375000 0.625000
vt 0.375000 0.125000
vt 0.375000 0.562500
vt 0.375000 0.062500
vt 0.375000 0.500000
vt 0.390625 1.000000
vt 0.375000 0.937500
vt 0.390625 0.000000
vt 0.375000 0.437500
vt 0.375000 0.875000
vt 0.343750 0.125000
vt 0.343750 0.062500
vt 0.343750 0.562500
vt 0.343750 0.500000
vt 0.359375 1.000000
vt 0.343750 0.937500
vt 0.359375 0.000000
vt 0.343750 0.437500
vt 0.343750 0.875000
vt 0.343750 0.375000
vt 0.343750 0.812500
vt 0.343750 0.312500
vt 0.343750 0.750000
vt 0.343750 0.250000
vt 0.343750 0.687500
vt 0.343750 0.187500
vt 0.343750 0.625000
vt 0.312500 0.812500
vt 0.312500 0.750000
vt 0.312500 0.312500
vt 0.312500 0.250000
vt 0.312500 0.687500
vt 0.312500 0.187500
vt 0.312500 0.625000
vt 0.312500 0.125000
vt 0.312500 0.562500
vt 0.312500 0.062500
vt 0.312500 0.500000
vt 0.328125 1.000000
vt 0.312500 0.937500
vt 0.328125 0.000000
vt 0.312500 0.437500
vt 0.312500 0.875000
vt 0.312500 0.375000
vt 0.281250 0.562500
vt 0.281250 0.500000
vt 0.296875 1.000000
vt 0.281250 0.937500
vt 0.296875 0.000000
vt 0.281250 0.062500
vt 0.281250 0.437500
vt 0.281250 0.875000
vt 0.281250 0.375000
vt 0.281250 0.812500
vt 0.281250 0.312500
vt 0.281250 0.750000
vt 0.281250 0.250000
vt 0.281250 0.687500
vt 0.281250 0.187500
vt 0.281250 0.625000
vt 0.281250 0.125000
vt 0.250000 0.312500
vt 0.250000 0.250000
vt 0.250000 0.750000
vt 0.250000 0.687500
vt 0.250000 0.187500
vt 0.250000 0.625000
vt 0.250000 0.125000
vt 0.250000 0.562500
vt 0.250000 0.062500
vt 0.250000 0.500000
vt 0.265625 1.000000
vt 0.250000 0.937500
vt 0.265625 0.000000
vt 0.250000 0.437500
vt 0.250000 0.875000
vt 0.250000 0.375000
vt 0.250000 0.812500
vt 0.234375 1.000000
vt 0.218750 0.937500
vt 0.234375 0.000000
vt 0.218750 0.062500
vt 0.218750 0.500000
vt 0.218750 0.437500
vt 0.218750 0.875000
vt 0.218750 0.375000
vt 0.218750 0.812500
vt 0.218750 0.312500
vt 0.218750 0.750000
vt 0.218750 0.250000
vt 0.218750 0.687500
vt 0.218750 0.187500
vt 0.218750 0.625000
vt 0.218750 0.125000
vt 0.218750 0.562500
vt 0.187500 0.750000
vt 0.187500 0.687500
vt 0.187500 0.250000
vt 0.187500 0.187500
vt 0.187500 0.625000
vt 0.187500 0.125000
vt 0.187500 0.562500
vt 0.187500 0.062500
vt 0.187500 0.500000
vt 0.203125 1.000000
vt 0.187500 0.937500
vt 0.203125 0.000000
vt 0.187500 0.437500
vt 0.187500 0.875000
vt 0.187500 0.375000
vt 0.187500 0.812500
vt 0.187500 0.312500
vt 0.156250 0.500000
vt 0.156250 0.437500
vt 0.156250 0.937500
vt 0.156250 0.875000
vt 0.156250 0.375000
vt 0.156250 0.812500
vt 0.156250 0.312500
vt 0.156250 0.750000
vt 0.156250 0.250000
vt 0.156250 0.687500
vt 0.156250 0.187500
vt 0.156250 0.625000
vt 0.156250 0.125000
vt 0.156250 0.562500
vt 0.156250 0.062500
vt 0.171875 1.000000
vt 0.171875 0.000000
vt 0.125000 0.250000
vt 0.125000 0.187500
vt 0.125000 0.687500
vt 0.125000 0.625000
vt 0.125000 0.125000
vt 0.125000 0.562500
vt 0.125000 0.062500
vt 0.125000 0.500000
vt 0.140625 1.000000
vt 0.125000 0.937500
vt 0.140625 0.000000
vt 0.125000 0.437500
vt 0.125000 0.875000
vt 0.125000 0.375000
vt 0.125000 0.812500
vt 0.125000 0.312500
vt 0.093750 0.437500
vt 0.093750 0.375000
vt 0.093750 0.875000
vt 0.093750 0.812500
vt 0.093750 0.312500
vt 0.093750 0.750000
vt 0.093750 0.250000
vt 0.093750 0.687500
vt 0.093750 0.187500
vt 0.093750 0.625000
vt 0.093750 0.125000
vt 0.093750 0.562500
vt 0.093750 0.062500
vt 0.093750 0.500000
vt 0.109375 1.000000
vt 0.093750 0.937500
vt 0.109375 0.000000
vt 0.062500 0.187500
vt 0.062500 0.125000
vt 0.062500 0.625000
vt 0.062500 0.562500
vt 0.062500 0.062500
vt 0.062500 0.500000
vt 0.078125 1.000000
vt 0.062500 0.937500
vt 0.078125 0.000000
vt 0.062500 0.437500
vt 0.062500 0.875000
vt 0.062500 0.375000
vt 0.062500 0.812500
vt 0.062500 0.312500
vt 0.062500 0.750000
vt 0.062500 0.250000
vt 0.062500 0.687500
vt 0.031250 0.875000
vt 0.031250 0.812500
vt 0.031250 0.375000
vt 0.031250 0.312500
vt 0.031250 0.750000
vt 0.031250 0.250000
vt 0.031250 0.687500
vt 0.031250 0.187500
vt 0.031250 0.625000
vt 0.031250 0.125000
vt 0.031250 0.562500
vt 0.031250 0.062500
vt 0.031250 0.500000
vt 0.046875 1.000000
vt 0.031250 0.937500
vt 0.046875 0.000000
vt 0.031250 0.437500
vt 0.000000 0.625000
vt 0.000000 0.562500
vt 0.000000 0.125000
vt 0.000000 0.062500
vt 0.000000 0.500000
vt 0.015625 1.000000
vt 0.000000 0.937500
vt 0.015625 0.000000
vt 0.000000 0.437500
vt 0.000000 0.875000
vt 0.000000 0.375000
vt 0.000000 0.812500
vt 0.000000 0.312500
vt 0.000000 0.750000
vt 0.000000 0.250000
vt 0.000000 0.687500
vt 0.000000 0.187500
vt 1.000000 0.312500
vt 1.000000 0.375000
vt 0.968750 0.375000
vt 0.968750 0.312500
vt 1.000000 0.750000
vt 1.000000 0.812500
vt 0.968750 0.812500
vt 0.968750 0.750000
vt 1.000000 0.250000
vt 0.968750 0.250000
vt 1.000000 0.687500
vt 0.968750 0.687500
vt 1.000000 0.187500
vt 0.968750 0.187500
vt 1.000000 0.625000
vt 0.968750 0.625000
vt 1.000000 0.125000
vt 0.968750 0.125000
vt 1.000000 0.562500
vt 0.968750 0.562500
vt 1.000000 0.062500
vt 0.968750 0.062500
vt 1.000000 0.500000
vt 0.968750 0.500000
vt 1.000000 0.937500
vt 0.984375 1.000000
vt 0.968750 0.937500
vt 0.984375 0.000000
vt 1.000000 0.437500
vt 0.968750 0.437500
vt 1.000000 0.875000
vt 0.968750 0.875000
vt 0.937500 0.125000
vt 0.937500 0.062500
vt 0.937500 0.562500
vt 0.937500 0.500000
vt 0.953125 1.000000
vt 0.937500 0.937500
vt 0.953125 0.000000
vt 0.937500 0.437500
vt 0.937500 0.875000
vt 0.937500 0.375000
vt 0.937500 0.812500
vt 0.937500 0.312500
vt 0.937500 0.750000
vt 0.937500 0.250000
vt 0.937500 0.687500
vt 0.937500 0.187500
vt 0.937500 0.625000
vt 0.906250 0.812500
vt 0.906250 0.750000
vt 0.906250 0.312500
vt 0.906250 0.250000
vt 0.906250 0.687500
vt 0.906250 0.187500
vt 0.906250 0.625000
vt 0.906250 0.125000
vt 0.906250 0.562500
vt 0.906250 0.062500
vt 0.906250 0.500000
vt 0.921875 1.000000
vt 0.906250 0.937500
vt 0.921875 0.000000
vt 0.906250 0.437500
vt 0.906250 0.875000
vt 0.906250 0.375000
vt 0.875000 0.562500
vt 0.875000 0.500000
vt 0.890625 1.000000
vt 0.875000 0.937500
vt 0.890625 0.000000
vt 0.875000 0.062500
vt 0.875000 0.437500
vt 0.875000 0.875000
vt 0.875000 0.375000
vt 0.875000 0.812500
vt 0.875000 0.312500
vt 0.875000 0.750000
vt 0.875000 0.250000
vt 0.875000 0.687500
vt 0.875000 0.187500
vt 0.875000 0.625000
vt 0.875000 0.125000
vt 0.843750 0.312500
vt 0.843750 0.250000
vt 0.843750 0.750000
vt 0.843750 0.687500
vt 0.843750 0.187500
vt 0.843750 0.625000
vt 0.843750 0.125000
vt 0.843750 0.562500
vt 0.843750 0.062500
vt 0.843750 0.500000
vt 0.859375 1.000000
vt 0.843750 0.937500
vt 0.859375 0.000000
vt 0.843750 0.437500
vt 0.843750 0.875000
vt 0.843750 0.375000
vt 0.843750 0.812500
vt 0.828125 0.000000
vt 0.812500 0.062500
vt 0.812500 0.500000
vt 0.812500 0.437500
vt 0.812500 0.937500
vt 0.812500 0.875000
vt 0.812500 0.375000
vt 0.812500 0.812500
vt 0.812500 0.312500
vt 0.812500 0.750000
vt 0.812500 0.250000
vt 0.812500 0.687500
vt 0.812500 0.187500
vt 0.812500 0.625000
vt 0.812500 0.125000
vt 0.812500 0.562500
vt 0.828125 1.000000
vt 0.781250 0.250000
vt 0.781250 0.187500
vt 0.781250 0.687500
vt 0.781250 0.625000
vt 0.781250 0.125000
vt 0.781250 0.562500
vt 0.781250 0.062500
vt 0.781250 0.500000
vt 0.796875 1.000000
vt 0.781250 0.937500
vt 0.796875 0.000000
vt 0.781250 0.437500
vt 0.781250 0.875000
vt 0.781250 0.375000
vt 0.781250 0.812500
vt 0.781250 0.312500
vt 0.781250 0.750000
vt 0.765625 1.000000
vt 0.765625 0.000000
s 0
usemtl Material.001
f 1/1/1 5/2/1 7/3/1 3/4/1
f 4/5/2 3/4/2 7/6/2 8/7/2
f 8/8/3 7/9/3 5/10/3 6/11/3
f 6/12/4 2/13/4 4/5/4 8/14/4
f 2/13/5 1/1/5 3/4/5 4/5/5
f 6/11/6 5/10/6 1/1/6 2/13/6
usemtl Material
f 9/1/3 13/2/3 15/3/3 11/4/3
f 12/5/2 11/4/2 15/6/2 16/7/2
f 16/8/4 15/9/4 13/10/4 14/11/4
f 14/12/5 10/13/5 12/5/5 16/14/5
f 10/13/1 9/1/1 11/4/1 12/5/1
f 14/11/6 13/10/6 9/1/6 10/13/6
usemtl Material.002
f 22/15/7 21/16/7 32/17/7 33/18/7
f 491/19/8 490/20/8 25/21/8 26/22/8
f 494/23/9 22/15/9 33/18/9 34/24/9
f 18/25/10 491/19/10 26/22/10 27/26/10
f 23/27/11 494/23/11 34/24/11 35/28/11
f 492/29/12 18/25/12 27/26/12 28/30/12
f 495/31/13 23/27/13 35/28/13 36/32/13
f 19/33/14 492/29/14 28/30/14 29/34/14
f 496/35/15 495/31/15 36/32/15 37/36/15
f 493/37/16 19/33/16 29/34/16 30/38/16
f 497/39/17 496/35/17 37/36/17 38/40/17
f 20/41/18 493/37/18 30/38/18 31/42/18
f 498/43/19 497/39/19 38/40/19 39/44/19
f 21/16/20 20/41/20 31/42/20 32/17/20
f 490/20/21 17/45/21 25/21/21
f 24/46/22 498/43/22 39/44/22
f 39/44/23 38/40/23 53/47/23 54/48/23
f 32/17/24 31/42/24 46/49/24 47/50/24
f 25/21/25 17/51/25 40/52/25
f 24/53/26 39/44/26 54/48/26
f 33/18/27 32/17/27 47/50/27 48/54/27
f 26/22/28 25/21/28 40/52/28 41/55/28
f 34/24/29 33/18/29 48/54/29 49/56/29
f 27/26/30 26/22/30 41/55/30 42/57/30
f 35/28/31 34/24/31 49/56/31 50/58/31
f 28/30/32 27/26/32 42/57/32 43/59/32
f 36/32/33 35/28/33 50/58/33 51/60/33
f 29/34/34 28/30/34 43/59/34 44/61/34
f 37/36/35 36/32/35 51/60/35 52/62/35
f 30/38/36 29/34/36 44/61/36 45/63/36
f 38/40/37 37/36/37 52/62/37 53/47/37
f 31/42/38 30/38/38 45/63/38 46/49/38
f 51/60/39 50/58/39 65/64/39 66/65/39
f 44/61/40 43/59/40 58/66/40 59/67/40
f 52/62/41 51/60/41 66/65/41 67/68/41
f 45/63/42 44/61/42 59/67/42 60/69/42
f 53/47/43 52/62/43 67/68/43 68/70/43
f 46/49/44 45/63/44 60/69/44 61/71/44
f 54/48/45 53/47/45 68/70/45 69/72/45
f 47/50/46 46/49/46 61/71/46 62/73/46
f 40/52/47 17/74/47 55/75/47
f 24/76/48 54/48/48 69/72/48
f 48/54/49 47/50/49 62/73/49 63/77/49
f 41/55/50 40/52/50 55/75/50 56/78/50
f 49/56/51 48/54/51 63/77/51 64/79/51
f 42/57/52 41/55/52 56/78/52 57/80/52
f 50/58/53 49/56/53 64/79/53 65/64/53
f 43/59/54 42/57/54 57/80/54 58/66/54
f 55/75/55 17/81/55 70/82/55
f 24/83/56 69/72/56 84/84/56
f 63/77/57 62/73/57 77/1/57 78/85/57
f 56/78/58 55/75/58 70/82/58 71/86/58
f 64/79/59 63/77/59 78/85/59 79/87/59
f 57/80/60 56/78/60 71/86/60 72/88/60
f 65/64/61 64/79/61 79/87/61 80/89/61
f 58/66/62 57/80/62 72/88/62 73/4/62
f 66/65/63 65/64/63 80/89/63 81/10/63
f 59/67/64 58/66/64 73/4/64 74/90/64
f 67/68/65 66/65/65 81/10/65 82/91/65
f 60/69/66 59/67/66 74/90/66 75/92/66
f 68/70/67 67/68/67 82/91/67 83/93/67
f 61/71/68 60/69/68 75/92/68 76/94/68
f 69/72/69 68/70/69 83/93/69 84/84/69
f 62/73/70 61/71/70 76/94/70 77/1/70
f 74/90/71 73/4/71 88/95/71 89/96/71
f 82/91/72 81/10/72 96/97/72 97/98/72
f 75/92/73 74/90/73 89/96/73 90/99/73
f 83/93/74 82/91/74 97/98/74 98/100/74
f 76/94/75 75/92/75 90/99/75 91/101/75
f 84/84/76 83/93/76 98/100/76 99/102/76
f 77/1/77 76/94/77 91/101/77 92/103/77
f 70/82/78 17/104/78 85/105/78
f 24/106/79 84/84/79 99/102/79
f 78/85/80 77/1/80 92/103/80 93/107/80
f 71/86/81 70/82/81 85/105/81 86/108/81
f 79/87/82 78/85/82 93/107/82 94/109/82
f 72/88/83 71/86/83 86/108/83 87/110/83
f 80/89/84 79/87/84 94/109/84 95/111/84
f 73/4/85 72/88/85 87/110/85 88/95/85
f 81/10/86 80/89/86 95/111/86 96/97/86
f 93/107/87 92/103/87 107/112/87 108/113/87
f 86/108/88 85/105/88 100/114/88 101/115/88
f 94/109/89 93/107/89 108/113/89 109/116/89
f 87/110/90 86/108/90 101/115/90 102/117/90
f 95/111/91 94/109/91 109/116/91 110/118/91
f 88/95/92 87/110/92 102/117/92 103/119/92
f 96/97/93 95/111/93 110/118/93 111/120/93
f 89/96/94 88/95/94 103/119/94 104/121/94
f 97/98/95 96/97/95 111/120/95 112/122/95
f 90/99/96 89/96/96 104/121/96 105/123/96
f 98/100/97 97/98/97 112/122/97 113/124/97
f 91/101/98 90/99/98 105/123/98 106/125/98
f 99/102/99 98/100/99 113/124/99 114/126/99
f 92/103/100 91/101/100 106/125/100 107/112/100
f 85/105/101 17/127/101 100/114/101
f 24/128/102 99/102/102 114/126/102
f 112/122/103 111/120/103 126/129/103 127/130/103
f 105/123/104 104/121/104 119/131/104 120/132/104
f 113/124/105 112/122/105 127/130/105 128/133/105
f 106/125/106 105/123/106 120/132/106 121/134/106
f 114/126/107 113/124/107 128/133/107 129/135/107
f 107/112/108 106/125/108 121/134/108 122/136/108
f 100/114/109 17/137/109 115/138/109
f 24/139/110 114/126/110 129/135/110
f 108/113/111 107/112/111 122/136/111 123/140/111
f 101/115/112 100/114/112 115/138/112 116/141/112
f 109/116/113 108/113/113 123/140/113 124/142/113
f 102/117/114 101/115/114 116/141/114 117/143/114
f 110/118/115 109/116/115 124/142/115 125/144/115
f 103/119/116 102/117/116 117/143/116 118/145/116
f 111/120/117 110/118/117 125/144/117 126/129/117
f 104/121/118 103/119/118 118/145/118 119/131/118
f 116/141/119 115/138/119 130/146/119 131/147/119
f 124/142/120 123/140/120 138/148/120 139/149/120
f 117/143/121 116/141/121 131/147/121 132/150/121
f 125/144/122 124/142/122 139/149/122 140/151/122
f 118/145/123 117/143/123 132/150/123 133/152/123
f 126/129/124 125/144/124 140/151/124 141/153/124
f 119/131/125 118/145/125 133/152/125 134/154/125
f 127/130/126 126/129/126 141/153/126 142/155/126
f 120/132/127 119/131/127 134/154/127 135/156/127
f 128/133/128 127/130/128 142/155/128 143/157/128
f 121/134/129 120/132/129 135/156/129 136/158/129
f 129/135/130 128/133/130 143/157/130 144/159/130
f 122/136/131 121/134/131 136/158/131 137/160/131
f 115/138/132 17/161/132 130/146/132
f 24/162/133 129/135/133 144/159/133
f 123/140/134 122/136/134 137/160/134 138/148/134
f 135/156/135 134/154/135 149/163/135 150/164/135
f 143/157/136 142/155/136 157/165/136 158/166/136
f 136/158/137 135/156/137 150/164/137 151/167/137
f 144/159/138 143/157/138 158/166/138 159/168/138
f 137/160/139 136/158/139 151/167/139 152/169/139
f 130/146/140 17/170/140 145/171/140
f 24/172/141 144/159/141 159/168/141
f 138/148/142 137/160/142 152/169/142 153/173/142
f 131/147/143 130/146/143 145/171/143 146/174/143
f 139/149/144 138/148/144 153/173/144 154/175/144
f 132/150/145 131/147/145 146/174/145 147/176/145
f 140/151/146 139/149/146 154/175/146 155/177/146
f 133/152/147 132/150/147 147/176/147 148/178/147
f 141/153/148 140/151/148 155/177/148 156/179/148
f 134/154/149 133/152/149 148/178/149 149/163/149
f 142/155/150 141/153/150 156/179/150 157/165/150
f 154/175/151 153/173/151 168/180/151 169/181/151
f 147/176/152 146/174/152 161/182/152 162/183/152
f 155/177/153 154/175/153 169/181/153 170/184/153
f 148/178/154 147/176/154 162/183/154 163/185/154
f 156/179/155 155/177/155 170/184/155 171/186/155
f 149/163/156 148/178/156 163/185/156 164/187/156
f 157/165/157 156/179/157 171/186/157 172/188/157
f 150/164/158 149/163/158 164/187/158 165/189/158
f 158/166/159 157/165/159 172/188/159 173/190/159
f 151/167/160 150/164/160 165/189/160 166/191/160
f 159/168/161 158/166/161 173/190/161 174/192/161
f 152/169/162 151/167/162 166/191/162 167/193/162
f 145/171/163 17/194/163 160/195/163
f 24/196/164 159/168/164 174/192/164
f 153/173/165 152/169/165 167/193/165 168/180/165
f 146/174/166 145/171/166 160/195/166 161/182/166
f 173/190/167 172/188/167 187/197/167 188/198/167
f 166/191/168 165/189/168 180/199/168 181/200/168
f 174/192/169 173/190/169 188/198/169 189/201/169
f 167/193/170 166/191/170 181/200/170 182/202/170
f 160/195/171 17/203/171 175/204/171
f 24/205/172 174/192/172 189/201/172
f 168/180/173 167/193/173 182/202/173 183/206/173
f 161/182/174 160/195/174 175/204/174 176/207/174
f 169/181/175 168/180/175 183/206/175 184/208/175
f 162/183/176 161/182/176 176/207/176 177/209/176
f 170/184/177 169/181/177 184/208/177 185/210/177
f 163/185/178 162/183/178 177/209/178 178/211/178
f 171/186/179 170/184/179 185/210/179 186/212/179
f 164/187/180 163/185/180 178/211/180 179/213/180
f 172/188/181 171/186/181 186/212/181 187/197/181
f 165/189/182 164/187/182 179/213/182 180/199/182
f 185/210/183 184/208/183 199/214/183 200/215/183
f 178/211/184 177/209/184 192/216/184 193/5/184
f 186/212/185 185/210/185 200/215/185 201/11/185
f 179/213/186 178/211/186 193/5/186 194/217/186
f 187/197/187 186/212/187 201/11/187 202/218/187
f 180/199/188 179/213/188 194/217/188 195/219/188
f 188/198/189 187/197/189 202/218/189 203/220/189
f 181/200/190 180/199/190 195/219/190 196/221/190
f 189/201/191 188/198/191 203/220/191 204/222/191
f 182/202/192 181/200/192 196/221/192 197/223/192
f 175/204/193 17/224/193 190/225/193
f 24/226/194 189/201/194 204/222/194
f 183/206/195 182/202/195 197/223/195 198/227/195
f 176/207/196 175/204/196 190/225/196 191/228/196
f 184/208/197 183/206/197 198/227/197 199/214/197
f 177/209/198 176/207/198 191/228/198 192/216/198
f 204/222/199 203/220/199 218/229/199 219/230/199
f 197/223/200 196/221/200 211/231/200 212/232/200
f 190/225/201 17/233/201 205/234/201
f 24/235/202 204/222/202 219/230/202
f 198/227/203 197/223/203 212/232/203 213/236/203
f 191/228/204 190/225/204 205/234/204 206/237/204
f 199/214/205 198/227/205 213/236/205 214/238/205
f 192/216/206 191/228/206 206/237/206 207/239/206
f 200/215/207 199/214/207 214/238/207 215/240/207
f 193/5/208 192/216/208 207/239/208 208/241/208
f 201/11/209 200/215/209 215/240/209 216/242/209
f 194/217/210 193/5/210 208/241/210 209/243/210
f 202/218/211 201/11/211 216/242/211 217/244/211
f 195/219/212 194/217/212 209/243/212 210/245/212
f 203/220/213 202/218/213 217/244/213 218/229/213
f 196/221/214 195/219/214 210/245/214 211/231/214
f 208/241/215 207/239/215 222/246/215 223/247/215
f 216/242/216 215/240/216 230/248/216 231/249/216
f 209/243/217 208/241/217 223/247/217 224/250/217
f 217/244/218 216/242/218 231/249/218 232/251/218
f 210/245/219 209/243/219 224/250/219 225/252/219
f 218/229/220 217/244/220 232/251/220 233/253/220
f 211/231/221 210/245/221 225/252/221 226/254/221
f 219/230/222 218/229/222 233/253/222 234/255/222
f 212/232/223 211/231/223 226/254/223 227/256/223
f 205/234/224 17/257/224 220/258/224
f 24/259/225 219/230/225 234/255/225
f 213/236/226 212/232/226 227/256/226 228/260/226
f 206/237/227 205/234/227 220/258/227 221/261/227
f 214/238/228 213/236/228 228/260/228 229/262/228
f 207/239/229 206/237/229 221/261/229 222/246/229
f 215/240/230 214/238/230 229/262/230 230/248/230
f 227/256/231 226/254/231 241/263/231 242/264/231
f 220/258/232 17/265/232 235/266/232
f 24/267/233 234/255/233 249/268/233
f 228/260/234 227/256/234 242/264/234 243/269/234
f 221/261/235 220/258/235 235/266/235 236/270/235
f 229/262/236 228/260/236 243/269/236 244/271/236
f 222/246/237 221/261/237 236/270/237 237/272/237
f 230/248/238 229/262/238 244/271/238 245/273/238
f 223/247/239 222/246/239 237/272/239 238/274/239
f 231/249/240 230/248/240 245/273/240 246/275/240
f 224/250/241 223/247/241 238/274/241 239/276/241
f 232/251/242 231/249/242 246/275/242 247/277/242
f 225/252/243 224/250/243 239/276/243 240/278/243
f 233/253/244 232/251/244 247/277/244 248/279/244
f 226/254/245 225/252/245 240/278/245 241/263/245
f 234/255/246 233/253/246 248/279/246 249/268/246
f 246/275/247 245/273/247 260/280/247 261/281/247
f 239/276/248 238/274/248 253/282/248 254/283/248
f 247/277/249 246/275/249 261/281/249 262/284/249
f 240/278/250 239/276/250 254/283/250 255/285/250
f 248/279/251 247/277/251 262/284/251 263/286/251
f 241/263/252 240/278/252 255/285/252 256/287/252
f 249/268/253 248/279/253 263/286/253 264/288/253
f 242/264/254 241/263/254 256/287/254 257/289/254
f 235/266/255 17/290/255 250/291/255
f 24/292/256 249/268/256 264/288/256
f 243/269/257 242/264/257 257/289/257 258/293/257
f 236/270/258 235/266/258 250/291/258 251/294/258
f 244/271/259 243/269/259 258/293/259 259/295/259
f 237/272/260 236/270/260 251/294/260 252/296/260
f 245/273/261 244/271/261 259/295/261 260/280/261
f 238/274/262 237/272/262 252/296/262 253/282/262
f 250/291/263 17/297/263 265/298/263
f 24/299/264 264/288/264 279/300/264
f 258/293/265 257/289/265 272/301/265 273/302/265
f 251/294/266 250/291/266 265/298/266 266/303/266
f 259/295/267 258/293/267 273/302/267 274/304/267
f 252/296/268 251/294/268 266/303/268 267/305/268
f 260/280/269 259/295/269 274/304/269 275/306/269
f 253/282/270 252/296/270 267/305/270 268/307/270
f 261/281/271 260/280/271 275/306/271 276/308/271
f 254/283/272 253/282/272 268/307/272 269/309/272
f 262/284/273 261/281/273 276/308/273 277/310/273
f 255/285/274 254/283/274 269/309/274 270/311/274
f 263/286/275 262/284/275 277/310/275 278/312/275
f 256/287/276 255/285/276 270/311/276 271/313/276
f 264/288/277 263/286/277 278/312/277 279/300/277
f 257/289/278 256/287/278 271/313/278 272/301/278
f 269/309/279 268/307/279 283/314/279 284/315/279
f 277/310/280 276/308/280 291/316/280 292/317/280
f 270/311/281 269/309/281 284/315/281 285/318/281
f 278/312/282 277/310/282 292/317/282 293/319/282
f 271/313/283 270/311/283 285/318/283 286/320/283
f 279/300/284 278/312/284 293/319/284 294/321/284
f 272/301/285 271/313/285 286/320/285 287/322/285
f 265/298/286 17/323/286 280/324/286
f 24/325/287 279/300/287 294/321/287
f 273/302/288 272/301/288 287/322/288 288/326/288
f 266/303/289 265/298/289 280/324/289 281/327/289
f 274/304/290 273/302/290 288/326/290 289/328/290
f 267/305/291 266/303/291 281/327/291 282/329/291
f 275/306/292 274/304/292 289/328/292 290/330/292
f 268/307/293 267/305/293 282/329/293 283/314/293
f 276/308/294 275/306/294 290/330/294 291/316/294
f 288/326/295 287/322/295 302/331/295 303/332/295
f 281/327/296 280/324/296 295/333/296 296/334/296
f 289/328/297 288/326/297 303/332/297 304/335/297
f 282/329/298 281/327/298 296/334/298 297/336/298
f 290/330/299 289/328/299 304/335/299 305/337/299
f 283/314/300 282/329/300 297/336/300 298/338/300
f 291/316/301 290/330/301 305/337/301 306/339/301
f 284/315/302 283/314/302 298/338/302 299/340/302
f 292/317/303 291/316/303 306/339/303 307/341/303
f 285/318/304 284/315/304 299/340/304 300/342/304
f 293/319/305 292/317/305 307/341/305 308/343/305
f 286/320/306 285/318/306 300/342/306 301/344/306
f 294/321/307 293/319/307 308/343/307 309/345/307
f 287/322/308 286/320/308 301/344/308 302/331/308
f 280/324/309 17/346/309 295/333/309
f 24/347/310 294/321/310 309/345/310
f 307/341/311 306/339/311 321/348/311 322/349/311
f 300/342/312 299/340/312 314/350/312 315/351/312
f 308/343/313 307/341/313 322/349/313 323/352/313
f 301/344/314 300/342/314 315/351/314 316/353/314
f 309/345/315 308/343/315 323/352/315 324/354/315
f 302/331/316 301/344/316 316/353/316 317/355/316
f 295/333/317 17/356/317 310/357/317
f 24/358/318 309/345/318 324/354/318
f 303/332/319 302/331/319 317/355/319 318/359/319
f 296/334/320 295/333/320 310/357/320 311/360/320
f 304/335/321 303/332/321 318/359/321 319/361/321
f 297/336/322 296/334/322 311/360/322 312/362/322
f 305/337/323 304/335/323 319/361/323 320/363/323
f 298/338/324 297/336/324 312/362/324 313/14/324
f 306/339/325 305/337/325 320/363/325 321/348/325
f 299/340/326 298/338/326 313/14/326 314/350/326
f 319/361/327 318/359/327 333/364/327 334/365/327
f 312/362/328 311/360/328 326/366/328 327/367/328
f 320/363/329 319/361/329 334/365/329 335/368/329
f 313/14/330 312/362/330 327/367/330 328/369/330
f 321/348/331 320/363/331 335/368/331 336/370/331
f 314/350/332 313/14/332 328/369/332 329/371/332
f 322/349/333 321/348/333 336/370/333 337/372/333
f 315/351/334 314/350/334 329/371/334 330/373/334
f 323/352/335 322/349/335 337/372/335 338/374/335
f 316/353/336 315/351/336 330/373/336 331/375/336
f 324/354/337 323/352/337 338/374/337 339/376/337
f 317/355/338 316/353/338 331/375/338 332/377/338
f 310/357/339 17/378/339 325/379/339
f 24/380/340 324/354/340 339/376/340
f 318/359/341 317/355/341 332/377/341 333/364/341
f 311/360/342 310/357/342 325/379/342 326/366/342
f 338/374/343 337/372/343 352/381/343 353/382/343
f 331/375/344 330/373/344 345/383/344 346/384/344
f 339/376/345 338/374/345 353/382/345 354/385/345
f 332/377/346 331/375/346 346/384/346 347/386/346
f 325/379/347 17/387/347 340/388/347
f 24/389/348 339/376/348 354/385/348
f 333/364/349 332/377/349 347/386/349 348/390/349
f 326/366/350 325/379/350 340/388/350 341/391/350
f 334/365/351 333/364/351 348/390/351 349/392/351
f 327/367/352 326/366/352 341/391/352 342/393/352
f 335/368/353 334/365/353 349/392/353 350/394/353
f 328/369/354 327/367/354 342/393/354 343/395/354
f 336/370/355 335/368/355 350/394/355 351/396/355
f 329/371/356 328/369/356 343/395/356 344/397/356
f 337/372/357 336/370/357 351/396/357 352/381/357
f 330/373/358 329/371/358 344/397/358 345/383/358
f 342/393/359 341/391/359 356/398/359 357/399/359
f 350/394/360 349/392/360 364/400/360 365/401/360
f 343/395/361 342/393/361 357/399/361 358/402/361
f 351/396/362 350/394/362 365/401/362 366/403/362
f 344/397/363 343/395/363 358/402/363 359/404/363
f 352/381/364 351/396/364 366/403/364 367/405/364
f 345/383/365 344/397/365 359/404/365 360/406/365
f 353/382/366 352/381/366 367/405/366 368/407/366
f 346/384/367 345/383/367 360/406/367 361/408/367
f 354/385/368 353/382/368 368/407/368 369/409/368
f 347/386/369 346/384/369 361/408/369 362/410/369
f 340/388/370 17/411/370 355/412/370
f 24/413/371 354/385/371 369/409/371
f 348/390/372 347/386/372 362/410/372 363/414/372
f 341/391/373 340/388/373 355/412/373 356/398/373
f 349/392/374 348/390/374 363/414/374 364/400/374
f 361/408/375 360/406/375 375/415/375 376/416/375
f 369/409/376 368/407/376 383/417/376 384/418/376
f 362/410/377 361/408/377 376/416/377 377/419/377
f 355/412/378 17/420/378 370/421/378
f 24/422/379 369/409/379 384/418/379
f 363/414/380 362/410/380 377/419/380 378/423/380
f 356/398/381 355/412/381 370/421/381 371/424/381
f 364/400/382 363/414/382 378/423/382 379/425/382
f 357/399/383 356/398/383 371/424/383 372/426/383
f 365/401/384 364/400/384 379/425/384 380/427/384
f 358/402/385 357/399/385 372/426/385 373/428/385
f 366/403/386 365/401/386 380/427/386 381/429/386
f 359/404/387 358/402/387 373/428/387 374/430/387
f 367/405/388 366/403/388 381/429/388 382/431/388
f 360/406/389 359/404/389 374/430/389 375/415/389
f 368/407/390 367/405/390 382/431/390 383/417/390
f 380/432/391 379/433/391 394/434/391 395/435/391
f 373/436/392 372/437/392 387/438/392 388/439/392
f 381/440/393 380/432/393 395/435/393 396/441/393
f 374/442/394 373/436/394 388/439/394 389/443/394
f 382/444/395 381/440/395 396/441/395 397/445/395
f 375/446/396 374/442/396 389/443/396 390/447/396
f 383/448/397 382/444/397 397/445/397 398/449/397
f 376/450/398 375/446/398 390/447/398 391/451/398
f 384/452/399 383/448/399 398/449/399 399/453/399
f 377/454/400 376/450/400 391/451/400 392/455/400
f 370/456/401 17/457/401 385/458/401
f 24/459/402 384/452/402 399/453/402
f 378/460/403 377/454/403 392/455/403 393/461/403
f 371/462/404 370/456/404 385/458/404 386/463/404
f 379/433/405 378/460/405 393/461/405 394/434/405
f 372/437/406 371/462/406 386/463/406 387/438/406
f 399/453/407 398/449/407 413/464/407 414/465/407
f 392/455/408 391/451/408 406/466/408 407/467/408
f 385/458/409 17/468/409 400/469/409
f 24/470/410 399/453/410 414/465/410
f 393/461/411 392/455/411 407/467/411 408/471/411
f 386/463/412 385/458/412 400/469/412 401/472/412
f 394/434/413 393/461/413 408/471/413 409/473/413
f 387/438/414 386/463/414 401/472/414 402/474/414
f 395/435/415 394/434/415 409/473/415 410/475/415
f 388/439/416 387/438/416 402/474/416 403/476/416
f 396/441/417 395/435/417 410/475/417 411/477/417
f 389/443/418 388/439/418 403/476/418 404/478/418
f 397/445/419 396/441/419 411/477/419 412/479/419
f 390/447/420 389/443/420 404/478/420 405/480/420
f 398/449/421 397/445/421 412/479/421 413/464/421
f 391/451/422 390/447/422 405/480/422 406/466/422
f 403/476/423 402/474/423 417/481/423 418/482/423
f 411/477/424 410/475/424 425/483/424 426/484/424
f 404/478/425 403/476/425 418/482/425 419/485/425
f 412/479/426 411/477/426 426/484/426 427/486/426
f 405/480/427 404/478/427 419/485/427 420/487/427
f 413/464/428 412/479/428 427/486/428 428/488/428
f 406/466/429 405/480/429 420/487/429 421/489/429
f 414/465/430 413/464/430 428/488/430 429/490/430
f 407/467/431 406/466/431 421/489/431 422/491/431
f 400/469/432 17/492/432 415/493/432
f 24/494/433 414/465/433 429/490/433
f 408/471/434 407/467/434 422/491/434 423/495/434
f 401/472/435 400/469/435 415/493/435 416/496/435
f 409/473/436 408/471/436 423/495/436 424/497/436
f 402/474/437 401/472/437 416/496/437 417/481/437
f 410/475/438 409/473/438 424/497/438 425/483/438
f 422/491/439 421/489/439 436/498/439 437/499/439
f 415/493/440 17/500/440 430/501/440
f 24/502/441 429/490/441 444/503/441
f 423/495/442 422/491/442 437/499/442 438/504/442
f 416/496/443 415/493/443 430/501/443 431/505/443
f 424/497/444 423/495/444 438/504/444 439/506/444
f 417/481/445 416/496/445 431/505/445 432/507/445
f 425/483/446 424/497/446 439/506/446 440/508/446
f 418/482/447 417/481/447 432/507/447 433/509/447
f 426/484/448 425/483/448 440/508/448 441/510/448
f 419/485/449 418/482/449 433/509/449 434/511/449
f 427/486/450 426/484/450 441/510/450 442/512/450
f 420/487/451 419/485/451 434/511/451 435/513/451
f 428/488/452 427/486/452 442/512/452 443/514/452
f 421/489/453 420/487/453 435/513/453 436/498/453
f 429/490/454 428/488/454 443/514/454 444/503/454
f 441/510/455 440/508/455 455/515/455 456/516/455
f 434/511/456 433/509/456 448/517/456 449/518/456
f 442/512/457 441/510/457 456/516/457 457/519/457
f 435/513/458 434/511/458 449/518/458 450/520/458
f 443/514/459 442/512/459 457/519/459 458/521/459
f 436/498/460 435/513/460 450/520/460 451/522/460
f 444/503/461 443/514/461 458/521/461 459/523/461
f 437/499/462 436/498/462 451/522/462 452/524/462
f 430/501/463 17/525/463 445/526/463
f 24/527/464 444/503/464 459/523/464
f 438/504/465 437/499/465 452/524/465 453/528/465
f 431/505/466 430/501/466 445/526/466 446/529/466
f 439/506/467 438/504/467 453/528/467 454/530/467
f 432/507/468 431/505/468 446/529/468 447/531/468
f 440/508/469 439/506/469 454/530/469 455/515/469
f 433/509/470 432/507/470 447/531/470 448/517/470
f 24/532/471 459/523/471 474/533/471
f 453/528/472 452/524/472 467/534/472 468/535/472
f 446/529/473 445/526/473 460/536/473 461/537/473
f 454/530/474 453/528/474 468/535/474 469/538/474
f 447/531/475 446/529/475 461/537/475 462/539/475
f 455/515/476 454/530/476 469/538/476 470/540/476
f 448/517/477 447/531/477 462/539/477 463/541/477
f 456/516/478 455/515/478 470/540/478 471/542/478
f 449/518/479 448/517/479 463/541/479 464/543/479
f 457/519/480 456/516/480 471/542/480 472/544/480
f 450/520/481 449/518/481 464/543/481 465/545/481
f 458/521/482 457/519/482 472/544/482 473/546/482
f 451/522/483 450/520/483 465/545/483 466/547/483
f 459/523/484 458/521/484 473/546/484 474/533/484
f 452/524/485 451/522/485 466/547/485 467/534/485
f 445/526/486 17/548/486 460/536/486
f 472/544/487 471/542/487 486/549/487 487/550/487
f 465/545/488 464/543/488 479/551/488 480/552/488
f 473/546/489 472/544/489 487/550/489 488/553/489
f 466/547/490 465/545/490 480/552/490 481/554/490
f 474/533/491 473/546/491 488/553/491 489/555/491
f 467/534/492 466/547/492 481/554/492 482/556/492
f 460/536/493 17/557/493 475/558/493
f 24/559/494 474/533/494 489/555/494
f 468/535/495 467/534/495 482/556/495 483/560/495
f 461/537/496 460/536/496 475/558/496 476/561/496
f 469/538/497 468/535/497 483/560/497 484/562/497
f 462/539/498 461/537/498 476/561/498 477/563/498
f 470/540/499 469/538/499 484/562/499 485/564/499
f 463/541/500 462/539/500 477/563/500 478/565/500
f 471/542/501 470/540/501 485/564/501 486/549/501
f 464/543/502 463/541/502 478/565/502 479/551/502
f 476/561/503 475/558/503 490/20/503 491/19/503
f 484/562/504 483/560/504 22/15/504 494/23/504
f 477/563/505 476/561/505 491/19/505 18/25/505
f 485/564/506 484/562/506 494/23/506 23/27/506
f 478/565/507 477/563/507 18/25/507 492/29/507
f 486/549/508 485/564/508 23/27/508 495/31/508
f 479/551/509 478/565/509 492/29/509 19/33/509
f 487/550/510 486/549/510 495/31/510 496/35/510
f 480/552/511 479/551/511 19/33/511 493/37/511
f 488/553/512 487/550/512 496/35/512 497/39/512
f 481/554/513 480/552/513 493/37/513 20/41/513
f 489/555/514 488/553/514 497/39/514 498/43/514
f 482/556/515 481/554/515 20/41/515 21/16/515
f 475/558/516 17/566/516 490/20/516
f 24/567/517 489/555/517 498/43/517
f 483/560/518 482/556/518 21/16/518 22/15/518
o Circle
v 0.000000 0.000000 -1.000000
v -0.195090 0.000000 -0.980785
v -0.382683 0.000000 -0.923880
v -0.555570 0.000000 -0.831470
v -0.707107 0.000000 -0.707107
v -0.831470 0.000000 -0.555570
v -0.923880 0.000000 -0.382683
v -0.980785 0.000000 -0.195090
v -1.000000 0.000000 0.000000
v -0.980785 0.000000 0.195090
v -0.923880 0.000000 0.382683
v -0.831470 0.000000 0.555570
v -0.707107 0.000000 0.707107
v -0.555570 0.000000 0.831470
v -0.382683 0.000000 0.923880
v -0.195090 0.000000 0.980785
v 0.000000 0.000000 1.000000
v 0.195090 0.000000 0.980785
v 0.382683 0.000000 0.923880
v 0.555570 0.000000 0.831470
v 0.707107 0.000000 0.707107
v 0.831470 0.000000 0.555570
v 0.923880 0.000000 0.382683
v 0.980785 0.000000 0.195090
v 1.000000 0.000000 0.000000
v 0.980785 0.000000 -0.195090
v 0.923880 0.000000 -0.382683
v 0.831470 0.000000 -0.555570
v 0.707107 0.000000 -0.707107
v 0.555570 0.000000 -0.831470
v 0.382683 0.000000 -0.923880
v 0.195090 0.000000 -0.980785
l 500 499
l 501 500
l 502 501
l 503 502
l 504 503
l 505 504
l 506 505
l 507 506
l 508 507
l 509 508
l 510 509
l 511 510
l 512 511
l 513 512
l 514 513
l 515 514
l 516 515
l 517 516
l 518 517
l 519 518
l 520 519
l 521 520
l 522 521
l 523 522
l 524 523
l 525 524
l 526 525
l 527 526
l 528 527
l 529 528
l 530 529
l 499 530
